<svg xmlns="http://www.w3.org/2000/svg" xmlns:xlink="http://www.w3.org/1999/xlink" width="1024" zoomAndPan="magnify" viewBox="0 0 768 767.999994" height="1024" preserveAspectRatio="xMidYMid meet" version="1.0"><defs><clipPath id="id1"><path d="M 94.886719 94.890625 L 673.136719 94.890625 L 673.136719 673.140625 L 94.886719 673.140625 Z M 94.886719 94.890625 " clip-rule="nonzero"/></clipPath></defs><g clip-path="url(#id1)"><path fill="rgb(24.708557%, 50.979614%, 72.549438%)" d="M 181.625 94.890625 L 586.398438 94.890625 C 587.820312 94.890625 589.238281 94.925781 590.65625 94.992188 C 592.074219 95.0625 593.488281 95.167969 594.902344 95.308594 C 596.316406 95.445312 597.722656 95.621094 599.128906 95.828125 C 600.53125 96.035156 601.929688 96.277344 603.320312 96.554688 C 604.714844 96.832031 606.097656 97.144531 607.476562 97.488281 C 608.851562 97.832031 610.21875 98.210938 611.578125 98.625 C 612.9375 99.035156 614.285156 99.480469 615.621094 99.960938 C 616.957031 100.4375 618.28125 100.949219 619.59375 101.492188 C 620.90625 102.035156 622.203125 102.609375 623.484375 103.21875 C 624.769531 103.824219 626.035156 104.460938 627.289062 105.132812 C 628.539062 105.800781 629.773438 106.5 630.992188 107.230469 C 632.210938 107.960938 633.410156 108.71875 634.589844 109.507812 C 635.769531 110.296875 636.929688 111.113281 638.070312 111.957031 C 639.210938 112.804688 640.328125 113.675781 641.425781 114.578125 C 642.523438 115.476562 643.597656 116.40625 644.648438 117.359375 C 645.703125 118.3125 646.730469 119.289062 647.734375 120.292969 C 648.738281 121.296875 649.714844 122.324219 650.667969 123.378906 C 651.621094 124.429688 652.546875 125.503906 653.449219 126.601562 C 654.351562 127.699219 655.222656 128.816406 656.070312 129.957031 C 656.914062 131.097656 657.730469 132.257812 658.519531 133.4375 C 659.308594 134.617188 660.066406 135.816406 660.796875 137.035156 C 661.527344 138.253906 662.226562 139.488281 662.894531 140.738281 C 663.566406 141.992188 664.203125 143.257812 664.808594 144.542969 C 665.417969 145.824219 665.992188 147.121094 666.535156 148.433594 C 667.078125 149.746094 667.589844 151.070312 668.066406 152.40625 C 668.546875 153.742188 668.992188 155.089844 669.402344 156.449219 C 669.816406 157.804688 670.195312 159.175781 670.539062 160.550781 C 670.882812 161.929688 671.195312 163.3125 671.472656 164.703125 C 671.746094 166.097656 671.992188 167.496094 672.199219 168.898438 C 672.40625 170.304688 672.582031 171.710938 672.71875 173.125 C 672.859375 174.539062 672.964844 175.953125 673.035156 177.371094 C 673.101562 178.789062 673.136719 180.207031 673.136719 181.625 L 673.136719 586.402344 C 673.136719 587.820312 673.101562 589.238281 673.035156 590.65625 C 672.964844 592.074219 672.859375 593.492188 672.71875 594.902344 C 672.582031 596.316406 672.40625 597.722656 672.199219 599.128906 C 671.992188 600.53125 671.746094 601.929688 671.472656 603.324219 C 671.195312 604.714844 670.882812 606.101562 670.539062 607.476562 C 670.195312 608.855469 669.816406 610.222656 669.402344 611.582031 C 668.992188 612.9375 668.546875 614.285156 668.066406 615.621094 C 667.589844 616.960938 667.078125 618.28125 666.535156 619.59375 C 665.992188 620.90625 665.417969 622.203125 664.808594 623.488281 C 664.203125 624.769531 663.566406 626.039062 662.894531 627.289062 C 662.226562 628.542969 661.527344 629.777344 660.796875 630.992188 C 660.066406 632.210938 659.308594 633.410156 658.519531 634.589844 C 657.730469 635.769531 656.914062 636.929688 656.070312 638.070312 C 655.222656 639.210938 654.351562 640.328125 653.449219 641.425781 C 652.546875 642.523438 651.621094 643.597656 650.667969 644.652344 C 649.714844 645.703125 648.738281 646.730469 647.734375 647.734375 C 646.730469 648.738281 645.703125 649.714844 644.648438 650.667969 C 643.597656 651.621094 642.523438 652.550781 641.425781 653.449219 C 640.328125 654.351562 639.210938 655.222656 638.070312 656.070312 C 636.929688 656.914062 635.769531 657.734375 634.589844 658.519531 C 633.410156 659.308594 632.210938 660.070312 630.992188 660.796875 C 629.773438 661.527344 628.539062 662.226562 627.289062 662.898438 C 626.035156 663.566406 624.769531 664.203125 623.484375 664.8125 C 622.203125 665.417969 620.90625 665.992188 619.59375 666.535156 C 618.28125 667.078125 616.957031 667.589844 615.621094 668.070312 C 614.285156 668.546875 612.9375 668.992188 611.578125 669.402344 C 610.21875 669.816406 608.851562 670.195312 607.476562 670.539062 C 606.097656 670.882812 604.714844 671.195312 603.320312 671.472656 C 601.929688 671.75 600.53125 671.992188 599.128906 672.199219 C 597.722656 672.410156 596.316406 672.582031 594.902344 672.722656 C 593.488281 672.859375 592.074219 672.964844 590.65625 673.035156 C 589.238281 673.105469 587.820312 673.140625 586.398438 673.140625 L 181.625 673.140625 C 180.207031 673.140625 178.785156 673.105469 177.371094 673.035156 C 175.953125 672.964844 174.535156 672.859375 173.125 672.722656 C 171.710938 672.582031 170.300781 672.410156 168.898438 672.199219 C 167.492188 671.992188 166.097656 671.75 164.703125 671.472656 C 163.3125 671.195312 161.925781 670.882812 160.550781 670.539062 C 159.171875 670.195312 157.804688 669.816406 156.445312 669.402344 C 155.089844 668.992188 153.742188 668.546875 152.40625 668.070312 C 151.066406 667.589844 149.742188 667.078125 148.433594 666.535156 C 147.121094 665.992188 145.824219 665.417969 144.539062 664.8125 C 143.257812 664.203125 141.988281 663.566406 140.738281 662.898438 C 139.484375 662.226562 138.25 661.527344 137.035156 660.796875 C 135.816406 660.070312 134.617188 659.308594 133.4375 658.519531 C 132.257812 657.734375 131.097656 656.914062 129.957031 656.070312 C 128.816406 655.222656 127.695312 654.351562 126.597656 653.449219 C 125.503906 652.550781 124.429688 651.621094 123.375 650.667969 C 122.324219 649.714844 121.296875 648.738281 120.292969 647.734375 C 119.289062 646.730469 118.308594 645.703125 117.355469 644.652344 C 116.402344 643.597656 115.476562 642.523438 114.578125 641.425781 C 113.675781 640.328125 112.800781 639.210938 111.957031 638.070312 C 111.113281 636.929688 110.292969 635.769531 109.503906 634.589844 C 108.71875 633.410156 107.957031 632.210938 107.226562 630.992188 C 106.5 629.777344 105.796875 628.542969 105.128906 627.289062 C 104.460938 626.039062 103.824219 624.769531 103.214844 623.488281 C 102.609375 622.203125 102.035156 620.90625 101.492188 619.59375 C 100.945312 618.28125 100.4375 616.960938 99.957031 615.621094 C 99.480469 614.285156 99.035156 612.9375 98.621094 611.582031 C 98.210938 610.222656 97.832031 608.855469 97.488281 607.476562 C 97.140625 606.101562 96.832031 604.714844 96.554688 603.324219 C 96.277344 601.929688 96.035156 600.53125 95.828125 599.128906 C 95.617188 597.722656 95.445312 596.316406 95.304688 594.902344 C 95.167969 593.492188 95.0625 592.074219 94.992188 590.65625 C 94.921875 589.238281 94.886719 587.820312 94.886719 586.402344 L 94.886719 181.625 C 94.886719 180.207031 94.921875 178.789062 94.992188 177.371094 C 95.0625 175.953125 95.167969 174.539062 95.304688 173.125 C 95.445312 171.710938 95.617188 170.304688 95.828125 168.898438 C 96.035156 167.496094 96.277344 166.097656 96.554688 164.703125 C 96.832031 163.3125 97.140625 161.929688 97.488281 160.550781 C 97.832031 159.175781 98.210938 157.804688 98.621094 156.449219 C 99.035156 155.089844 99.480469 153.742188 99.957031 152.40625 C 100.4375 151.070312 100.945312 149.746094 101.492188 148.433594 C 102.035156 147.121094 102.609375 145.824219 103.214844 144.542969 C 103.824219 143.257812 104.460938 141.992188 105.128906 140.738281 C 105.796875 139.488281 106.5 138.253906 107.226562 137.035156 C 107.957031 135.816406 108.71875 134.617188 109.503906 133.4375 C 110.292969 132.257812 111.113281 131.097656 111.957031 129.957031 C 112.800781 128.816406 113.675781 127.699219 114.578125 126.601562 C 115.476562 125.503906 116.402344 124.429688 117.355469 123.378906 C 118.308594 122.324219 119.289062 121.296875 120.292969 120.292969 C 121.296875 119.289062 122.324219 118.3125 123.375 117.359375 C 124.429688 116.40625 125.503906 115.476562 126.597656 114.578125 C 127.695312 113.675781 128.816406 112.804688 129.957031 111.957031 C 131.097656 111.113281 132.257812 110.296875 133.4375 109.507812 C 134.617188 108.71875 135.816406 107.960938 137.035156 107.230469 C 138.25 106.5 139.484375 105.800781 140.738281 105.132812 C 141.988281 104.460938 143.257812 103.824219 144.539062 103.21875 C 145.824219 102.609375 147.121094 102.035156 148.433594 101.492188 C 149.742188 100.949219 151.066406 100.4375 152.40625 99.960938 C 153.742188 99.480469 155.089844 99.035156 156.445312 98.625 C 157.804688 98.210938 159.171875 97.832031 160.550781 97.488281 C 161.925781 97.144531 163.3125 96.832031 164.703125 96.554688 C 166.097656 96.277344 167.492188 96.035156 168.898438 95.828125 C 170.300781 95.621094 171.710938 95.445312 173.125 95.308594 C 174.535156 95.167969 175.953125 95.0625 177.371094 94.992188 C 178.789062 94.925781 180.207031 94.890625 181.625 94.890625 Z M 181.625 94.890625 " fill-opacity="1" fill-rule="nonzero"/></g><path fill="rgb(100%, 100%, 100%)" d="M 297.050781 250.746094 C 297.050781 252.113281 296.980469 253.480469 296.847656 254.839844 C 296.714844 256.203125 296.511719 257.554688 296.246094 258.898438 C 295.980469 260.238281 295.648438 261.566406 295.25 262.875 C 294.851562 264.183594 294.390625 265.472656 293.867188 266.738281 C 293.34375 268 292.761719 269.238281 292.113281 270.445312 C 291.46875 271.652344 290.765625 272.824219 290.007812 273.960938 C 289.246094 275.097656 288.433594 276.199219 287.5625 277.253906 C 286.695312 278.3125 285.777344 279.324219 284.808594 280.292969 C 283.84375 281.261719 282.828125 282.179688 281.773438 283.046875 C 280.714844 283.914062 279.617188 284.730469 278.476562 285.492188 C 277.339844 286.25 276.167969 286.953125 274.960938 287.597656 C 273.753906 288.242188 272.519531 288.828125 271.253906 289.351562 C 269.988281 289.875 268.703125 290.335938 267.390625 290.734375 C 266.082031 291.132812 264.757812 291.464844 263.414062 291.730469 C 262.070312 291.996094 260.71875 292.199219 259.359375 292.332031 C 257.996094 292.464844 256.628906 292.53125 255.261719 292.53125 C 253.894531 292.53125 252.527344 292.464844 251.164062 292.332031 C 249.804688 292.199219 248.453125 291.996094 247.109375 291.730469 C 245.765625 291.464844 244.441406 291.132812 243.132812 290.734375 C 241.820312 290.335938 240.535156 289.875 239.269531 289.351562 C 238.007812 288.828125 236.769531 288.242188 235.5625 287.597656 C 234.355469 286.953125 233.183594 286.25 232.046875 285.492188 C 230.90625 284.730469 229.808594 283.914062 228.753906 283.046875 C 227.695312 282.179688 226.679688 281.261719 225.714844 280.292969 C 224.746094 279.324219 223.828125 278.3125 222.960938 277.253906 C 222.089844 276.199219 221.277344 275.097656 220.515625 273.960938 C 219.757812 272.824219 219.054688 271.652344 218.410156 270.445312 C 217.761719 269.238281 217.179688 268 216.65625 266.738281 C 216.132812 265.472656 215.671875 264.183594 215.273438 262.875 C 214.875 261.566406 214.542969 260.238281 214.277344 258.898438 C 214.011719 257.554688 213.808594 256.203125 213.675781 254.839844 C 213.542969 253.480469 213.472656 252.113281 213.472656 250.746094 C 213.472656 249.375 213.542969 248.011719 213.675781 246.648438 C 213.808594 245.289062 214.011719 243.933594 214.277344 242.59375 C 214.542969 241.25 214.875 239.925781 215.273438 238.613281 C 215.671875 237.304688 216.132812 236.019531 216.65625 234.753906 C 217.179688 233.488281 217.761719 232.253906 218.410156 231.046875 C 219.054688 229.839844 219.757812 228.667969 220.515625 227.53125 C 221.277344 226.390625 222.089844 225.292969 222.960938 224.234375 C 223.828125 223.179688 224.746094 222.164062 225.714844 221.195312 C 226.679688 220.230469 227.695312 219.3125 228.753906 218.441406 C 229.808594 217.574219 230.90625 216.761719 232.046875 216 C 233.183594 215.238281 234.355469 214.539062 235.5625 213.890625 C 236.769531 213.246094 238.007812 212.664062 239.269531 212.140625 C 240.535156 211.613281 241.820312 211.15625 243.132812 210.757812 C 244.441406 210.359375 245.765625 210.027344 247.109375 209.761719 C 248.453125 209.492188 249.804688 209.292969 251.164062 209.160156 C 252.527344 209.023438 253.894531 208.957031 255.261719 208.957031 C 256.628906 208.957031 257.996094 209.023438 259.359375 209.160156 C 260.71875 209.292969 262.070312 209.492188 263.414062 209.761719 C 264.757812 210.027344 266.082031 210.359375 267.390625 210.757812 C 268.703125 211.15625 269.988281 211.613281 271.253906 212.140625 C 272.519531 212.664062 273.753906 213.246094 274.960938 213.890625 C 276.167969 214.539062 277.339844 215.238281 278.476562 216 C 279.617188 216.761719 280.714844 217.574219 281.773438 218.441406 C 282.828125 219.3125 283.84375 220.230469 284.808594 221.195312 C 285.777344 222.164062 286.695312 223.179688 287.5625 224.234375 C 288.433594 225.292969 289.246094 226.390625 290.007812 227.53125 C 290.765625 228.667969 291.46875 229.839844 292.113281 231.046875 C 292.761719 232.253906 293.34375 233.488281 293.867188 234.753906 C 294.390625 236.019531 294.851562 237.304688 295.25 238.613281 C 295.648438 239.925781 295.980469 241.25 296.246094 242.59375 C 296.511719 243.933594 296.714844 245.289062 296.847656 246.648438 C 296.980469 248.011719 297.050781 249.375 297.050781 250.746094 Z M 297.050781 250.746094 " fill-opacity="1" fill-rule="nonzero"/><path stroke-linecap="butt" transform="matrix(1.129394, 0, 0, 1.129394, 94.8878, 94.889077)" fill-opacity="1" fill="rgb(100%, 100%, 100%)" fill-rule="nonzero" stroke-linejoin="miter" d="M 244.000787 194.000518 L 244.000787 392.001394 M 141.999916 194.000518 L 141.999916 392.001394 " stroke="rgb(100%, 100%, 100%)" stroke-width="66" stroke-opacity="1" stroke-miterlimit="4"/><path fill="rgb(100%, 100%, 100%)" d="M 406.601562 413.378906 C 406.601562 390.789062 421.28125 368.203125 447.257812 368.203125 C 474.363281 368.203125 484.527344 388.53125 484.527344 419.023438 L 484.527344 537.613281 L 559.070312 537.613281 L 559.070312 409.988281 C 559.070312 341.097656 522.929688 309.472656 473.234375 309.472656 C 434.835938 309.472656 415.636719 330.933594 406.601562 345.613281 " fill-opacity="1" fill-rule="nonzero"/></svg>
