<svg xmlns="http://www.w3.org/2000/svg" xmlns:xlink="http://www.w3.org/1999/xlink" width="1024" zoomAndPan="magnify" viewBox="0 0 768 767.999994" height="1024" preserveAspectRatio="xMidYMid meet" version="1.0"><defs><clipPath id="id1"><path d="M 72 137 L 696 137 L 696 644.367188 L 72 644.367188 Z M 72 137 " clip-rule="nonzero"/></clipPath></defs><g clip-path="url(#id1)"><path fill="rgb(24.708557%, 50.979614%, 72.549438%)" d="M 631.84375 263.738281 C 632.21875 269.238281 632.21875 274.738281 632.21875 280.277344 C 632.21875 449.351562 503.570312 644.328125 268.34375 644.328125 L 268.34375 644.230469 C 198.851562 644.339844 130.808594 624.433594 72.3125 586.878906 C 82.410156 588.085938 92.574219 588.699219 102.757812 588.722656 C 160.34375 588.773438 216.28125 569.441406 261.585938 533.84375 C 206.855469 532.808594 158.871094 497.109375 142.105469 444.984375 C 161.277344 448.6875 181.027344 447.929688 199.839844 442.777344 C 140.171875 430.714844 97.246094 378.265625 97.246094 317.359375 C 97.246094 316.800781 97.246094 316.277344 97.246094 315.738281 C 115.027344 325.644531 134.933594 331.144531 155.292969 331.753906 C 99.105469 294.199219 81.789062 219.410156 115.722656 160.921875 C 180.652344 240.863281 276.449219 289.457031 379.289062 294.597656 C 368.976562 250.15625 383.066406 203.59375 416.289062 172.347656 C 467.804688 123.902344 548.8125 126.386719 597.234375 177.898438 C 625.871094 172.25 653.324219 161.734375 678.445312 146.839844 C 668.894531 176.464844 648.921875 201.625 622.230469 217.601562 C 647.578125 214.609375 672.347656 207.824219 695.675781 197.457031 C 678.496094 223.203125 656.863281 245.628906 631.84375 263.738281 Z M 631.84375 263.738281 " fill-opacity="1" fill-rule="nonzero"/></g></svg>
